<svg xmlns="http://www.w3.org/2000/svg" xmlns:xlink="http://www.w3.org/1999/xlink" width="150" zoomAndPan="magnify" viewBox="0 0 112.5 31.5" height="42" preserveAspectRatio="xMidYMid meet" version="1.0"><defs><clipPath id="eca5f66d3c"><path d="M 32.242188 8 L 38 8 L 38 13 L 32.242188 13 Z M 32.242188 8 " clip-rule="nonzero"/></clipPath></defs><path fill="#777e33" d="M 27.890625 6.285156 C 28.316406 6.773438 27.890625 7.714844 26.910156 7.378906 C 24.496094 6.53125 18.8125 11.574219 16.824219 12.914062 C 16.671875 13.003906 16.425781 13.066406 16.304688 12.914062 C 16.183594 12.730469 16.273438 12.457031 16.367188 12.367188 L 19.207031 10.296875 L 15.601562 8.929688 C 15.84375 8.777344 16.027344 8.535156 16.027344 8.261719 C 16 7.898438 15.480469 7.289062 15.113281 7.289062 C 14.867188 7.257812 14.5625 7.5625 13.738281 8.261719 L 12.789062 7.957031 C 12.789062 7.957031 13.15625 7.683594 13.09375 7.351562 C 13.0625 7.105469 12.757812 6.773438 12.515625 6.589844 C 12.269531 6.40625 12.023438 6.378906 11.808594 6.558594 C 11.472656 6.804688 11.199219 7.046875 10.925781 7.320312 C 10.007812 7.015625 7.714844 6.226562 6.949219 5.953125 C 6.1875 5.707031 5.941406 4.796875 7.960938 3.582031 C 8.785156 3.09375 10.464844 1.789062 13.308594 1.210938 C 17.464844 0.390625 23.488281 0.964844 27.890625 6.285156 Z M 27.890625 6.285156 " fill-opacity="1" fill-rule="evenodd"/><path fill="#7c2571" d="M 8.417969 23.003906 L 16.824219 17.867188 C 16.824219 17.867188 17.769531 17.167969 18.078125 18.261719 C 18.320312 19.175781 19.605469 23.25 20.339844 26.136719 C 20.675781 27.382812 21.101562 28.597656 20.980469 28.933594 C 20.765625 29.570312 19.605469 29.660156 18.75 29.785156 C 16.457031 30.117188 13.035156 29.90625 10.066406 28.417969 C 4.167969 25.4375 5.453125 24.160156 8.417969 23.003906 Z M 8.417969 23.003906 " fill-opacity="1" fill-rule="evenodd"/><path fill="#6ab1ae" d="M 4.71875 8.625 C 6.15625 9.386719 11.597656 12.488281 14.011719 13.886719 C 14.746094 14.3125 13.890625 15.132812 13.492188 15.4375 C 10.433594 17.65625 8.753906 18.902344 6.460938 20.605469 L 3.191406 20.179688 C 3.007812 20.148438 2.640625 20.148438 2.578125 19.933594 C 1.324219 16.410156 1.90625 10.269531 3.710938 8.445312 C 3.953125 8.230469 4.351562 8.414062 4.71875 8.625 Z M 4.71875 8.625 " fill-opacity="1" fill-rule="evenodd"/><path fill="#777e33" d="M 26.269531 8.078125 L 26.667969 7.835938 C 26.695312 7.804688 26.789062 7.804688 26.820312 7.867188 L 27.0625 8.261719 C 27.09375 8.324219 27.09375 8.382812 27.035156 8.414062 L 26.636719 8.6875 C 26.574219 8.71875 26.515625 8.6875 26.453125 8.625 L 26.207031 8.230469 C 26.175781 8.203125 26.207031 8.109375 26.269531 8.078125 Z M 26.269531 8.078125 " fill-opacity="1" fill-rule="evenodd"/><path fill="#777e33" d="M 25.167969 8.75 L 25.566406 8.503906 C 25.628906 8.472656 25.6875 8.472656 25.71875 8.535156 L 25.964844 8.929688 C 25.992188 8.992188 25.992188 9.050781 25.933594 9.082031 L 25.535156 9.355469 C 25.472656 9.386719 25.414062 9.355469 25.382812 9.296875 L 25.105469 8.898438 C 25.078125 8.839844 25.105469 8.777344 25.167969 8.75 Z M 25.167969 8.75 " fill-opacity="1" fill-rule="evenodd"/><path fill="#777e33" d="M 24.070312 9.417969 L 24.464844 9.175781 C 24.527344 9.144531 24.585938 9.144531 24.617188 9.203125 L 24.863281 9.601562 C 24.894531 9.660156 24.894531 9.722656 24.832031 9.75 L 24.433594 9.996094 C 24.375 10.054688 24.3125 10.027344 24.28125 9.964844 L 24.039062 9.570312 C 23.976562 9.507812 24.007812 9.445312 24.070312 9.417969 Z M 24.070312 9.417969 " fill-opacity="1" fill-rule="evenodd"/><path fill="#777e33" d="M 22.96875 10.085938 L 23.363281 9.84375 C 23.425781 9.8125 23.488281 9.8125 23.519531 9.871094 L 23.761719 10.269531 C 23.792969 10.328125 23.792969 10.390625 23.730469 10.417969 L 23.335938 10.664062 C 23.273438 10.722656 23.210938 10.695312 23.183594 10.632812 L 22.9375 10.238281 C 22.90625 10.175781 22.90625 10.117188 22.96875 10.085938 Z M 22.96875 10.085938 " fill-opacity="1" fill-rule="evenodd"/><path fill="#777e33" d="M 21.867188 10.753906 L 22.265625 10.511719 C 22.324219 10.480469 22.386719 10.480469 22.417969 10.542969 L 22.660156 10.9375 C 22.722656 10.996094 22.691406 11.058594 22.632812 11.089844 L 22.234375 11.332031 C 22.171875 11.363281 22.113281 11.363281 22.082031 11.300781 L 21.835938 10.90625 C 21.804688 10.847656 21.804688 10.785156 21.867188 10.753906 Z M 21.867188 10.753906 " fill-opacity="1" fill-rule="evenodd"/><path fill="#6ab1ae" d="M 14.378906 15.863281 L 14.773438 15.585938 C 14.835938 15.558594 14.929688 15.585938 14.957031 15.648438 L 15.203125 16.042969 C 15.234375 16.074219 15.203125 16.164062 15.171875 16.195312 L 14.777344 16.4375 C 14.714844 16.46875 14.621094 16.46875 14.59375 16.410156 L 14.347656 16.011719 C 14.316406 15.953125 14.347656 15.890625 14.378906 15.863281 Z M 14.378906 15.863281 " fill-opacity="1" fill-rule="evenodd"/><path fill="#6ab1ae" d="M 13.339844 16.46875 L 13.734375 16.226562 C 13.796875 16.195312 13.859375 16.226562 13.890625 16.285156 L 14.132812 16.683594 C 14.195312 16.710938 14.164062 16.804688 14.101562 16.835938 L 13.707031 17.078125 C 13.644531 17.109375 13.582031 17.109375 13.550781 17.046875 L 13.308594 16.652344 C 13.277344 16.589844 13.277344 16.53125 13.339844 16.46875 Z M 13.339844 16.46875 " fill-opacity="1" fill-rule="evenodd"/><path fill="#6ab1ae" d="M 12.328125 17.109375 L 12.726562 16.863281 C 12.789062 16.835938 12.878906 16.863281 12.910156 16.925781 L 13.15625 17.320312 C 13.1875 17.351562 13.15625 17.441406 13.125 17.472656 L 12.726562 17.714844 C 12.667969 17.746094 12.574219 17.746094 12.542969 17.683594 L 12.300781 17.289062 C 12.269531 17.230469 12.300781 17.167969 12.328125 17.109375 Z M 12.328125 17.109375 " fill-opacity="1" fill-rule="evenodd"/><path fill="#6ab1ae" d="M 11.320312 17.835938 L 11.71875 17.59375 C 11.78125 17.535156 11.871094 17.5625 11.902344 17.625 L 12.148438 18.019531 C 12.175781 18.082031 12.148438 18.140625 12.117188 18.171875 L 11.71875 18.414062 C 11.65625 18.445312 11.566406 18.445312 11.535156 18.382812 L 11.292969 17.988281 C 11.261719 17.929688 11.289062 17.867188 11.320312 17.835938 Z M 11.320312 17.835938 " fill-opacity="1" fill-rule="evenodd"/><path fill="#6ab1ae" d="M 10.3125 18.445312 L 10.710938 18.203125 C 10.769531 18.171875 10.832031 18.171875 10.863281 18.230469 L 11.109375 18.628906 C 11.136719 18.6875 11.136719 18.75 11.078125 18.808594 L 10.679688 19.050781 C 10.617188 19.082031 10.558594 19.050781 10.527344 18.992188 L 10.28125 18.597656 C 10.21875 18.566406 10.25 18.476562 10.3125 18.445312 Z M 10.3125 18.445312 " fill-opacity="1" fill-rule="evenodd"/><path fill="#6ab1ae" d="M 9.273438 19.054688 L 9.671875 18.808594 C 9.730469 18.78125 9.824219 18.808594 9.851562 18.839844 L 10.097656 19.234375 C 10.128906 19.296875 10.097656 19.386719 10.035156 19.417969 L 9.667969 19.660156 C 9.609375 19.691406 9.515625 19.660156 9.484375 19.628906 L 9.242188 19.234375 C 9.210938 19.175781 9.242188 19.082031 9.273438 19.054688 Z M 9.273438 19.054688 " fill-opacity="1" fill-rule="evenodd"/><path fill="#100f0d" d="M 23.730469 13.792969 C 23.914062 13.519531 27.277344 11.515625 27.859375 11.148438 C 28.257812 10.875 29.664062 9.175781 30.089844 10.207031 C 32.015625 15.160156 30.914062 18.535156 29.660156 21.667969 C 29.082031 23.15625 24.097656 29.9375 23.855469 26.316406 L 23.792969 22.277344 C 23.792969 22.152344 25.136719 21.394531 25.230469 21.304688 C 25.597656 20.96875 24.863281 20.054688 24.679688 19.933594 C 24.496094 19.84375 24.25 19.875 24.007812 20.085938 C 23.640625 20.390625 23.730469 19.601562 23.730469 19.207031 L 25.109375 18.292969 C 25.445312 18.050781 25.109375 17.351562 24.679688 16.988281 C 24.28125 16.589844 23.671875 17.441406 23.671875 17.078125 C 23.671875 16.347656 23.425781 14.160156 23.730469 13.792969 Z M 23.730469 13.792969 " fill-opacity="1" fill-rule="evenodd"/><g clip-path="url(#eca5f66d3c)"><path fill="#000000" d="M 34.320312 9.300781 L 32.867188 9.300781 L 32.867188 8.238281 L 37.097656 8.238281 L 37.097656 9.300781 L 35.65625 9.300781 L 35.65625 12.964844 L 34.320312 12.964844 Z M 34.320312 9.300781 " fill-opacity="1" fill-rule="nonzero"/></g><path fill="#000000" d="M 42.09375 8.238281 L 42.09375 12.964844 L 40.757812 12.964844 L 40.757812 11.121094 L 38.933594 11.121094 L 38.933594 12.964844 L 37.597656 12.964844 L 37.597656 8.238281 L 38.933594 8.238281 L 38.933594 10.015625 L 40.757812 10.015625 L 40.757812 8.238281 Z M 42.09375 8.238281 " fill-opacity="1" fill-rule="nonzero"/><path fill="#000000" d="M 46.832031 11.929688 L 46.832031 12.964844 L 43.039062 12.964844 L 43.039062 8.238281 L 46.742188 8.238281 L 46.742188 9.273438 L 44.359375 9.273438 L 44.359375 10.070312 L 46.460938 10.070312 L 46.460938 11.066406 L 44.359375 11.066406 L 44.359375 11.929688 Z M 46.832031 11.929688 " fill-opacity="1" fill-rule="nonzero"/><path fill="#000000" d="M 49.539062 8.238281 L 50.875 8.238281 L 50.875 11.90625 L 53.128906 11.90625 L 53.128906 12.964844 L 49.539062 12.964844 Z M 49.539062 8.238281 " fill-opacity="1" fill-rule="nonzero"/><path fill="#000000" d="M 57.445312 11.929688 L 57.445312 12.964844 L 53.652344 12.964844 L 53.652344 8.238281 L 57.359375 8.238281 L 57.359375 9.273438 L 54.976562 9.273438 L 54.976562 10.070312 L 57.074219 10.070312 L 57.074219 11.066406 L 54.976562 11.066406 L 54.976562 11.929688 Z M 57.445312 11.929688 " fill-opacity="1" fill-rule="nonzero"/><path fill="#000000" d="M 58.191406 8.238281 L 59.527344 8.238281 L 59.527344 12.964844 L 58.191406 12.964844 Z M 58.191406 8.238281 " fill-opacity="1" fill-rule="nonzero"/><path fill="#000000" d="M 60.148438 12.539062 L 60.585938 11.554688 C 61.003906 11.832031 61.597656 12.019531 62.144531 12.019531 C 62.699219 12.019531 62.914062 11.863281 62.914062 11.632812 C 62.914062 10.886719 60.226562 11.433594 60.226562 9.675781 C 60.226562 8.835938 60.917969 8.144531 62.320312 8.144531 C 62.933594 8.144531 63.570312 8.289062 64.035156 8.558594 L 63.621094 9.550781 C 63.171875 9.308594 62.726562 9.183594 62.3125 9.183594 C 61.753906 9.183594 61.550781 9.375 61.550781 9.609375 C 61.550781 10.332031 64.230469 9.792969 64.230469 11.535156 C 64.230469 12.355469 63.542969 13.058594 62.136719 13.058594 C 61.363281 13.058594 60.59375 12.851562 60.148438 12.539062 Z M 60.148438 12.539062 " fill-opacity="1" fill-rule="nonzero"/><path fill="#000000" d="M 64.804688 10.859375 L 64.804688 8.238281 L 66.140625 8.238281 L 66.140625 10.816406 C 66.140625 11.628906 66.476562 11.953125 67.039062 11.953125 C 67.589844 11.953125 67.929688 11.628906 67.929688 10.816406 L 67.929688 8.238281 L 69.246094 8.238281 L 69.246094 10.859375 C 69.246094 12.269531 68.421875 13.058594 67.023438 13.058594 C 65.625 13.058594 64.804688 12.269531 64.804688 10.859375 Z M 64.804688 10.859375 " fill-opacity="1" fill-rule="nonzero"/><path fill="#000000" d="M 72.214844 11.707031 L 71.484375 11.707031 L 71.484375 12.964844 L 70.148438 12.964844 L 70.148438 8.238281 L 72.308594 8.238281 C 73.597656 8.238281 74.40625 8.90625 74.40625 9.988281 C 74.40625 10.683594 74.070312 11.195312 73.484375 11.480469 L 74.503906 12.964844 L 73.070312 12.964844 Z M 72.226562 9.292969 L 71.484375 9.292969 L 71.484375 10.675781 L 72.226562 10.675781 C 72.78125 10.675781 73.058594 10.421875 73.058594 9.988281 C 73.058594 9.550781 72.78125 9.292969 72.226562 9.292969 Z M 72.226562 9.292969 " fill-opacity="1" fill-rule="nonzero"/><path fill="#000000" d="M 78.9375 11.929688 L 78.9375 12.964844 L 75.144531 12.964844 L 75.144531 8.238281 L 78.847656 8.238281 L 78.847656 9.273438 L 76.464844 9.273438 L 76.464844 10.070312 L 78.5625 10.070312 L 78.5625 11.066406 L 76.464844 11.066406 L 76.464844 11.929688 Z M 78.9375 11.929688 " fill-opacity="1" fill-rule="nonzero"/><path fill="#000000" d="M 81.640625 8.238281 L 82.980469 8.238281 L 82.980469 11.90625 L 85.234375 11.90625 L 85.234375 12.964844 L 81.640625 12.964844 Z M 81.640625 8.238281 " fill-opacity="1" fill-rule="nonzero"/><path fill="#000000" d="M 89.550781 11.929688 L 89.550781 12.964844 L 85.757812 12.964844 L 85.757812 8.238281 L 89.464844 8.238281 L 89.464844 9.273438 L 87.082031 9.273438 L 87.082031 10.070312 L 89.179688 10.070312 L 89.179688 11.066406 L 87.082031 11.066406 L 87.082031 11.929688 Z M 89.550781 11.929688 " fill-opacity="1" fill-rule="nonzero"/><path fill="#000000" d="M 93.460938 12.046875 L 91.460938 12.046875 L 91.089844 12.964844 L 89.726562 12.964844 L 91.8125 8.238281 L 93.128906 8.238281 L 95.222656 12.964844 L 93.832031 12.964844 Z M 93.070312 11.0625 L 92.460938 9.546875 L 91.855469 11.0625 Z M 93.070312 11.0625 " fill-opacity="1" fill-rule="nonzero"/><path fill="#000000" d="M 98.695312 10.5 L 99.878906 10.5 L 99.878906 12.457031 C 99.332031 12.847656 98.582031 13.058594 97.894531 13.058594 C 96.390625 13.058594 95.289062 12.039062 95.289062 10.601562 C 95.289062 9.164062 96.390625 8.144531 97.921875 8.144531 C 98.804688 8.144531 99.519531 8.449219 99.984375 9.007812 L 99.136719 9.777344 C 98.8125 9.421875 98.441406 9.25 97.988281 9.25 C 97.175781 9.25 96.636719 9.785156 96.636719 10.601562 C 96.636719 11.398438 97.175781 11.953125 97.972656 11.953125 C 98.222656 11.953125 98.460938 11.90625 98.695312 11.796875 Z M 98.695312 10.5 " fill-opacity="1" fill-rule="nonzero"/><path fill="#000000" d="M 100.6875 10.859375 L 100.6875 8.238281 L 102.023438 8.238281 L 102.023438 10.816406 C 102.023438 11.628906 102.363281 11.953125 102.921875 11.953125 C 103.476562 11.953125 103.8125 11.628906 103.8125 10.816406 L 103.8125 8.238281 L 105.128906 8.238281 L 105.128906 10.859375 C 105.128906 12.269531 104.304688 13.058594 102.910156 13.058594 C 101.511719 13.058594 100.6875 12.269531 100.6875 10.859375 Z M 100.6875 10.859375 " fill-opacity="1" fill-rule="nonzero"/><path fill="#000000" d="M 109.824219 11.929688 L 109.824219 12.964844 L 106.03125 12.964844 L 106.03125 8.238281 L 109.738281 8.238281 L 109.738281 9.273438 L 107.355469 9.273438 L 107.355469 10.070312 L 109.453125 10.070312 L 109.453125 11.066406 L 107.355469 11.066406 L 107.355469 11.929688 Z M 109.824219 11.929688 " fill-opacity="1" fill-rule="nonzero"/><path fill="#000000" d="M 34.828125 18.59375 L 33.347656 18.59375 L 33.347656 17.507812 L 37.667969 17.507812 L 37.667969 18.589844 L 36.191406 18.589844 L 36.191406 22.332031 L 34.828125 22.332031 Z M 34.828125 18.59375 " fill-opacity="1" fill-rule="nonzero"/><path fill="#000000" d="M 37.859375 19.921875 C 37.859375 18.476562 38.996094 17.414062 40.542969 17.414062 C 42.085938 17.414062 43.222656 18.476562 43.222656 19.921875 C 43.222656 21.371094 42.085938 22.429688 40.542969 22.429688 C 38.996094 22.429688 37.859375 21.367188 37.859375 19.921875 Z M 41.84375 19.921875 C 41.84375 19.089844 41.269531 18.542969 40.539062 18.542969 C 39.808594 18.542969 39.238281 19.089844 39.238281 19.921875 C 39.238281 20.757812 39.808594 21.300781 40.539062 21.300781 C 41.269531 21.300781 41.84375 20.757812 41.84375 19.921875 Z M 41.84375 19.921875 " fill-opacity="1" fill-rule="nonzero"/><path fill="#000000" d="M 43.898438 20.183594 L 43.898438 17.507812 L 45.261719 17.507812 L 45.261719 20.140625 C 45.261719 20.96875 45.605469 21.300781 46.179688 21.300781 C 46.742188 21.300781 47.085938 20.96875 47.085938 20.140625 L 47.085938 17.507812 L 48.429688 17.507812 L 48.429688 20.183594 C 48.429688 21.625 47.589844 22.429688 46.164062 22.429688 C 44.738281 22.429688 43.898438 21.625 43.898438 20.183594 Z M 43.898438 20.183594 " fill-opacity="1" fill-rule="nonzero"/><path fill="#000000" d="M 51.464844 21.050781 L 50.71875 21.050781 L 50.71875 22.332031 L 49.355469 22.332031 L 49.355469 17.507812 L 51.5625 17.507812 C 52.878906 17.507812 53.703125 18.191406 53.703125 19.292969 C 53.703125 20.003906 53.359375 20.527344 52.757812 20.816406 L 53.800781 22.332031 L 52.339844 22.332031 Z M 51.476562 18.585938 L 50.71875 18.585938 L 50.71875 19.996094 L 51.476562 19.996094 C 52.042969 19.996094 52.324219 19.734375 52.324219 19.292969 C 52.324219 18.847656 52.042969 18.585938 51.476562 18.585938 Z M 51.476562 18.585938 " fill-opacity="1" fill-rule="nonzero"/><path fill="#000000" d="M 54.453125 17.507812 L 55.820312 17.507812 L 55.820312 22.332031 L 54.453125 22.332031 Z M 54.453125 17.507812 " fill-opacity="1" fill-rule="nonzero"/><path fill="#000000" d="M 56.453125 21.898438 L 56.902344 20.894531 C 57.328125 21.175781 57.933594 21.367188 58.492188 21.367188 C 59.058594 21.367188 59.277344 21.210938 59.277344 20.976562 C 59.277344 20.210938 56.535156 20.769531 56.535156 18.976562 C 56.535156 18.117188 57.238281 17.414062 58.671875 17.414062 C 59.300781 17.414062 59.949219 17.558594 60.421875 17.832031 L 60.003906 18.847656 C 59.542969 18.597656 59.085938 18.476562 58.667969 18.476562 C 58.09375 18.476562 57.886719 18.667969 57.886719 18.910156 C 57.886719 19.644531 60.625 19.09375 60.625 20.871094 C 60.625 21.714844 59.921875 22.429688 58.488281 22.429688 C 57.695312 22.429688 56.910156 22.21875 56.453125 21.898438 Z M 56.453125 21.898438 " fill-opacity="1" fill-rule="nonzero"/><path fill="#000000" d="M 65.605469 22.335938 L 65.589844 19.777344 L 64.351562 21.859375 L 63.746094 21.859375 L 62.511719 19.847656 L 62.511719 22.335938 L 61.25 22.335938 L 61.25 17.507812 L 62.375 17.507812 L 64.070312 20.292969 L 65.722656 17.507812 L 66.84375 17.507812 L 66.859375 22.332031 L 65.605469 22.332031 Z M 65.605469 22.335938 " fill-opacity="1" fill-rule="nonzero"/><path fill="#000000" d="M 69.828125 17.507812 L 71.195312 17.507812 L 71.195312 21.25 L 73.496094 21.25 L 73.496094 22.332031 L 69.828125 22.332031 Z M 69.828125 17.507812 " fill-opacity="1" fill-rule="nonzero"/><path fill="#000000" d="M 74.035156 17.507812 L 75.398438 17.507812 L 75.398438 21.25 L 77.699219 21.25 L 77.699219 22.332031 L 74.03125 22.332031 L 74.03125 17.507812 Z M 74.035156 17.507812 " fill-opacity="1" fill-rule="nonzero"/><path fill="#000000" d="M 77.914062 19.921875 C 77.914062 18.453125 79.035156 17.414062 80.566406 17.414062 C 81.457031 17.414062 82.171875 17.738281 82.640625 18.324219 L 81.773438 19.109375 C 81.46875 18.742188 81.097656 18.542969 80.636719 18.542969 C 79.84375 18.542969 79.292969 19.09375 79.292969 19.921875 C 79.292969 20.75 79.84375 21.300781 80.636719 21.300781 C 81.097656 21.300781 81.46875 21.101562 81.773438 20.734375 L 82.640625 21.519531 C 82.171875 22.105469 81.457031 22.429688 80.566406 22.429688 C 79.035156 22.429688 77.914062 21.390625 77.914062 19.921875 Z M 77.914062 19.921875 " fill-opacity="1" fill-rule="nonzero"/></svg>